<svg xmlns="http://www.w3.org/2000/svg"><symbol id="micropachycephalosaurus" viewBox="0 0 256 256"><path d="M123.7 146c-.2 0-.2.1-.2.4a.3.3 0 0 0-.3.3c0 .2.1.4.3.4s.3-.1.3-.4c.2 0 .3-.1.3-.3s-.1-.4-.4-.4zm.9-.5l-.5.5h.2l.7-.2.5-.5h-.2zm1.9-1.6c-.2 0-.2.1-.2.3h-.1c-.2 0-.3.1-.3.3h-.1c-.2 0-.3.1-.3.4s.1.3.3.3.3-.1.3-.3h.1c.2 0 .3-.1.3-.4.2 0 .3-.1.3-.3s-.1-.3-.3-.3zm14-3.5l-.8.9a1.1 1.1 0 0 0 .5.6h.7a1.3 1.3 0 0 0 .8-.3l.6-.7.5-.9c.1-.3.2-.7.3-.7H141c-.1 0-.2.7-.5 1.1z"/><path d="M121 55.3a76.7 76.7 0 1 0 76.7 76.7A76.7 76.7 0 0 0 121 55.3zm57.5 45.5l-.9.2h-2.2l-3.1.8a9.6 9.6 0 0 0-2.2 1 5.6 5.6 0 0 0-1.5 1.3 8.4 8.4 0 0 0-1.1 1.8 21.6 21.6 0 0 0-.9 2.4l-1 3-.7 2.1-.8 1.9-.9 1.9-1.1 1.9a20.1 20.1 0 0 1-1.6 2.5l-1.8 2.2-1.9 2.1-1.9 2.3a6.3 6.3 0 0 0-.8 1.6l-.6 1.5a5 5 0 0 1-.8 1.3 3.4 3.4 0 0 1-1.5 1l-.8.3-1.2.4-1.2.4-.8.2a1.7 1.7 0 0 1 .1 1.2 1.2 1.2 0 0 1-.5.6l-.7.4a1 1 0 0 0-.5.6l-1.4 4.1a1.6 1.6 0 0 1-.6.9l-1.1.5H139c-.2-.1-.2-.2-.2-.5v-.6a.4.4 0 0 0 .1-.2l-2.1 1-2 1.2-2 1.3-2 1.2-.5.3-.7.3-.6.5a.9.9 0 0 0-.3.6v.2l1.1 1 1.2 1 1.2 1 1.3.8 1.1.4 1.2.3 1.1.4 1 .5.8.8.7.9.7.9.9.8 1 .4 1.3.4 1.1.6a1.3 1.3 0 0 1 .5 1v.2l-3.4.7-.7.2-.7.2h-.3l-.7-.4-1-.6-1-.6-.6-.5h-.1l-.2-.3-.2-.3-.2-.3-1.4-2.7-.7-.3-1.1-.4-1.3-.6-1.3-.6-1.1-.5-.7-.4-1.7-1-1.6-1.3a8 8 0 0 1-1.2-1.6 4.9 4.9 0 0 1-.6-1.9h-.3l-.4.2-.5.4-1 .7-1.3.9-1.3.8-1.1.6-.6.3-3.6 2.1a14 14 0 0 0-2.7 2.1 10.4 10.4 0 0 0-2.2 2.7c-.5 1-.4 2.4-1.4 4a2.1 2.1 0 0 1 0 .3v.6a6 6 0 0 0 .7 2.7 4.8 4.8 0 0 0 1.3 1.6 5.1 5.1 0 0 0 1.6.8l1.5.6a3.4 3.4 0 0 1 1.2.6 3.1 3.1 0 0 1 .5 1.2h-8v-.2h-.5l-.4-.2a1.8 1.8 0 0 1-.8-.9 5.3 5.3 0 0 1-.3-1.3 9.5 9.5 0 0 1 .1-1.4c0-.5.2-.9.2-1.2v-.9a4.2 4.2 0 0 1 .2-1.1c.1-.5.2-1 .3-1.6l.5-1.9.5-1.9.4-1.6.3-1.1a9.2 9.2 0 0 1 .4-1.2l.6-1.1a8.7 8.7 0 0 0 2.7-1.5 16.6 16.6 0 0 0 2-2l1.7-2.1a9.3 9.3 0 0 1 2.1-1.9l.9-.4 1.2-.5 1.4-.6 1.3-.7 1-.8a1.4 1.4 0 0 0 .4-.9v-.8a1.1 1.1 0 0 0-.4-.7l-.5-.2-.7-.3-.7-.3-.5-.2-1.2-.7-1.6-1.1-1.5-.9a1.9 1.9 0 0 0-1-.3h-4.7c-3.6 0-7.2-.1-10.7.1h-11l-7.8-.2a65.6 65.6 0 0 1-7.5-.8 51.8 51.8 0 0 1-7.2-1.8 41.9 41.9 0 0 1-7.1-3l-.9-.4-1-.6-.8-.8a1.5 1.5 0 0 1-.3-1l1.3.2 1.4.6 1.3.6.9.4 2.8 1 3 .9 3.1.6 2.9.2h16l1.5-.2 2-.3 2.2-.4 2.1-.4 1.6-.3 4.2-.8 4.4-1 4.4-1.3a28.8 28.8 0 0 0 4-1.7l2.3-1.1 2.3-1 2.4-.8 2.5-.5h3.4l1.1-.2 2-.4 2.5-.5 2.4-.5 2-.7 1.1-.4h4.3c1.6 0 3.2.3 4.8.4s3.1.3 4.7.3a6.1 6.1 0 0 0 3-.8 11.2 11.2 0 0 0 2.7-2.1 19.8 19.8 0 0 0 2.3-3 39 39 0 0 0 2-3.4c.6-1.1 1.1-2.3 1.5-3.4l1.1-2.9.7-2.1.6-1.9a9.6 9.6 0 0 1 .7-1.6 4.4 4.4 0 0 1 1.1-1.2 4.8 4.8 0 0 1 1.6-1 7.5 7.5 0 0 1 2.3-.5h1.9c.5 1 1.1.5 1.8.8l2.1.9a9.2 9.2 0 0 1 1.8 1.1 1.7 1.7 0 0 1 .8 1.3 1.3 1.3 0 0 1-.3.9z"/></symbol><symbol id="velociraptor" viewBox="0 0 256 256"><path d="M122.3 45.3A76.7 76.7 0 1 0 199 122a76.7 76.7 0 0 0-76.7-76.7zm66.3 70h-4.4l-5.5-.3-5.5-.6-5.5-.6-5.5-.3a81.5 81.5 0 0 0-9.8.6 44.4 44.4 0 0 0-9.5 2.2l-18.5 6.7a1.5 1.5 0 0 0-.7.9 12.3 12.3 0 0 0-.5 1.6l-.4 1.7a4.2 4.2 0 0 1-.4 1.2 1.9 1.9 0 0 0 .8.8l1.5.7 1.7.7 1.7.9a5.1 5.1 0 0 1 1.3 1.1 2.3 2.3 0 0 1 .5 1.5 1 1 0 0 1-.3.7l-.7.5-1 .4-1 .5-.7.6a1.4 1.4 0 0 0-.3.9 2.2 2.2 0 0 0 .5 1.5 4.8 4.8 0 0 0 1.2.9l1.4.8a4.5 4.5 0 0 1 1.3 1 10.5 10.5 0 0 1 1.2 2.1 14.2 14.2 0 0 1 .8 2.2 21.2 21.2 0 0 1 .5 2.3c.1.8.1 1.6.2 2.4l.8.8v4.3h2.1v.5a4 4 0 0 1-.1.6l-.2.8a1.9 1.9 0 0 1-.4.6.6.6 0 0 1-.5.2h-3.1l-.6-.5-.9-.5-.9-.5c-.3-.2-.5-.5-.7-.5h-3.7a2.8 2.8 0 0 1 .4-1.8 2.6 2.6 0 0 1 1-.9l1.3-.4 1.3-.2 1-.4a.9.9 0 0 0 .4-.8 1.7 1.7 0 0 0 0-.2v-.2l-.5-1.1-.8-1.5-.9-1.5-.9-1.1-.8-.5-1.1-.6-1.1-.6a1.3 1.3 0 0 1-.6-.7 13.8 13.8 0 0 1-.6-1.8 13 13 0 0 0-.6-1.9 4.8 4.8 0 0 0-1-1.6 2.4 2.4 0 0 0-1.7-.6 14.1 14.1 0 0 0-3.6.5 16.1 16.1 0 0 0-3.4 1.3 15.7 15.7 0 0 0-3 2.1 13.5 13.5 0 0 0-2.4 2.8h-.4v-1.2h-.2a.9.9 0 0 0-.6.3l-.5.7-.5.8-.5.6a2.6 2.6 0 0 1-.4-1 9 9 0 0 1 0-1 6.3 6.3 0 0 1 .2-1.7l.5-1.7c.2-.6.4-.9.5-1.5a11.8 11.8 0 0 0 .2-1.7h-2.9c0-1 .1-1.1.4-1.4a3.5 3.5 0 0 1 1-1 4.3 4.3 0 0 1 1.3-.5l1.3-.2h1.8l1.8.3 1.7.3h3.1a1.6 1.6 0 0 0-1-.8l-1.5-.3H110c-.5 0-1 .1-1.3-.1l-2.3-1.3h-.2a8.2 8.2 0 0 0-1.9 0 8 8 0 0 1-1.9.1 4.5 4.5 0 0 1-1.8-.4l-1.6-.8-1.6-.8a3.1 3.1 0 0 0-1.7-.4v3.6h1l.6-.2.5-.3.5-.4h.4v1.7l1.2-.4c0 .1.1.2.1.3v.3a3.4 3.4 0 0 1-.8 2.3 13.1 13.1 0 0 1-2 1.8 13.7 13.7 0 0 0-2.8-.8l-2.9-.4v-4.7l-1 .3-1.2.6-1.2.7c-.3.3-.6.5-.6.7v4.2l1.8-.2 1.1-.4.7-.4.7-.2h.2l.2.4.3.8.2.8a2.5 2.5 0 0 1 .1.6 3.1 3.1 0 0 1-.2 1.2 4.3 4.3 0 0 1-.6 1.1 3.5 3.5 0 0 1-.9.8 2 2 0 0 1-1.1.3h-.6l-1.8-.3-2.2-.4a7.2 7.2 0 0 1-2-.7 1.5 1.5 0 0 1-.9-1.3v-7l.5-.5 1.1-1 1.4-1.3 1.4-1.5 1.1-1.6a3.3 3.3 0 0 0 .4-1.6 2.3 2.3 0 0 0-.7-1.7 7.1 7.1 0 0 0-1.7-1.2l-2-.9-1.5-.5-.8-5.5c-.1-.5-.2-1-.4-1.6a7.1 7.1 0 0 0-.7-1.7 4.3 4.3 0 0 0-1.1-1.3 2.5 2.5 0 0 0-1.6-.5 7.5 7.5 0 0 0-2.2.3l-1.9.9-1 .6-1.5.9-1.8 1.1-1.8 1-1.5 1c-.5.3-.8.7-1 .7H64l-1.2-.2a2.1 2.1 0 0 1-.8-.5c-.3-.2-.2-.5-.2-.8v-1.1c0-.4-.1-.5 0-.6h.9a.6.6 0 0 1 0-.3v-1a.5.5 0 0 0 0-.3l-.5-.5-.5-.3-.4-.4a1.2 1.2 0 0 1-.2-.7 1.9 1.9 0 0 1 .1-.7l.4-.7c.2-.2.1-.4.4-.5l.5-.2v.5c0 .3.3.6.3.9a.7.7 0 0 0 .7.4 1 1 0 0 0 .7-.3l.6-.7a6.3 6.3 0 0 0 .4-1c.1-.3.2.2.2-.8h-7.3l-.5-.3-.6-.4-.5-.5a.9.9 0 0 1-.2-.6 2.7 2.7 0 0 1 .6-1.9 4.5 4.5 0 0 1 1.6-1.1l1.9-.6 1.7-.5 1.3-.6 2-.9 2-1a6.1 6.1 0 0 1 1.3-.6H77a4.5 4.5 0 0 1 2.3.6 8.1 8.1 0 0 1 1.9 1.5 16 16 0 0 1 1.5 2l1.4 2a10.1 10.1 0 0 0 1.4 1.5 2.2 2.2 0 0 0 1.5.6.5.5 0 0 0 .5-.2.5.5 0 0 1 .5-.2l.9.2.9.4.9.4.9.2h2.5l2.5-.3 2.5-.3h2.5l4.4.2a23.4 23.4 0 0 1 4.4 1l3 1.2 3.1 1.3 3.2 1.1a12.9 12.9 0 0 0 3.3.4h1.6l7.8-1.6 7.7-1.4 7.8-.9c2.6-.2 5.3-.3 7.9-.3h5.3a24.6 24.6 0 0 1 3 .6l22 4.4h6.9c-.5 0-1.1.6-1.9.8a11 11 0 0 1-2.5.1z"/></symbol><symbol id="brachiosaurus" viewBox="0 0 256 256"><path d="M74.1 158.5a19.8 19.8 0 0 0-4.6.5c0 .2.2.4.5.6l1.2.6 1.6.6 1.7.5 1.5.4h2l1.5-.2 1.4-.5a2.7 2.7 0 0 0 1-.9 16.7 16.7 0 0 0-3.9-1.3 19 19 0 0 0-3.9-.3z"/><path d="M115.7 58.3a76.7 76.7 0 1 0 76.6 76.7 76.7 76.7 0 0 0-76.6-76.7zm50 42.3v.2a4.3 4.3 0 0 1-.1.8c-.1.4-.1.8-.2 1.3l-.2 1.3v.8a5.9 5.9 0 0 0-.5 1.1l-.4 1.2-.3 1.2-.4 1.2-1 1.8a12.8 12.8 0 0 0-1 1.8l-12 16.7v.3l-.2.2-.2.2-.2.3-1 1.4-1.2 1.7-1.3 2-1.2 2a14.7 14.7 0 0 0-.8 1.8 4.2 4.2 0 0 0-.3 1.4c0 .2-.1.3-.1.4s.1.3.1.4c-.1 0-.2.1-.2.2s.1.2.2.2v6.1a1.6 1.6 0 0 1-.1.6l-.2.7c-.1.2-.3.5-.4.7s-.3.5-.3.7v1a.2.2 0 0 1 0 .3l-.2.5-.4.5-.3.3v.2l.5.3.5.3v1.7a14 14 0 0 1-.4 2.1c-.1.7-.3 1.4-.5 2.1s-.3 1.4-.4 2.1a13.7 13.7 0 0 0-.2 2.1 37 37 0 0 0 .2 3.8 25.2 25.2 0 0 0 .7 3.7 19.3 19.3 0 0 0 1.3 3.5 14.1 14.1 0 0 0 2.1 3.2l-.8.5-1 .4-1 .3h-1.2l-.6-.2-.7-.2h-1l-.5-.2-.4-.3a.8.8 0 0 1-.2-.4 18 18 0 0 0 .1-2.5c0-.9-.1-1.7-.2-2.6s-.2-1.7-.3-2.6l-.3-2.5v-.4l-.2-.4c0-.7.1-1.4.1-2.2s0-1.6-.1-2.4a15.8 15.8 0 0 0-.4-2.4 6.9 6.9 0 0 0-.9-2.1 2 2 0 0 0-.9 1.1 13.3 13.3 0 0 0-.5 1.6c-.1.6-.1 1.2-.3 1.7s-.6 1-.6 1.4v4.6c0 1.7-.1 3.4-.1 5s.1 3.3.3 5l.2.2.5.4.5.4a.6.6 0 0 1 .2.4c0 .1-.2.3-.5.5l-1.1.5-1.2.5-.8.3h-.1l-2.9-1.6a.3.3 0 0 1-.1-.3v-.4a13.5 13.5 0 0 1 0-1.8 13.1 13.1 0 0 0 .1-1.8 15.8 15.8 0 0 0-.2-2.3c-.1-.7-.2-1.5-.4-2.2l-.4-2.3a18 18 0 0 1-.2-2.4c0-.7 0-1.4.1-2s.1-1.1.2-1.7l.3-1.7.4-1.9a.8.8 0 0 0 0-.4 2.5 2.5 0 0 1-.1-.4h-1.1l-1.1.3-1.2.4-1.2.3h-11.9a2.5 2.5 0 0 0-1.4.5v3.1c0 1-.1 2.1-.1 3.1s-.1 2.1-.2 3.1-.1 2.1-.1 3.1v3c0 .3.4.7.7 1l.8 1 .7 1.1a2.1 2.1 0 0 1 .3 1.1 5.5 5.5 0 0 1-2.4.2c.1.3 0 .4-.1.5h-3a2.6 2.6 0 0 1-1.1-.5 1.3 1.3 0 0 1-.5-1.1 4.2 4.2 0 0 1 .1-.8l.2-.8.2-.8a3.9 3.9 0 0 0 .1-.8 15.7 15.7 0 0 0-.2-2.3c-.1-.7-.2-1.5-.4-2.2l-.5-2.3a16.3 16.3 0 0 1-.4-2.4h-.3c-.1 0-.2.5-.3.6l-.2.4-.2.3-.9 1.4-.9 1.4a10.1 10.1 0 0 0-.7 1.5 5.1 5.1 0 0 0-.3 1.6 2.6 2.6 0 0 0 .2 1l.4.9.4.7.2.4a.5.5 0 0 1-.2.4l-.6.3-.8.2h-2.5l-.6-.2-.4-.5-.3-1-.3-1a3 3 0 0 1-.2-1 2 2 0 0 1 .3-.9l.6-1 .6-1 .5-.9 1.5-3.6 1.5-3.6.3-.5.3-.4.3-.5a1.1 1.1 0 0 0 .1-.5c0-.2-.1-.3-.2-.4h-.8L95 163l-.8.3-1.1.2-1 .3a.7.7 0 0 0-.4.6.9.9 0 0 0 .2.5l.4.4.5.3.5.4-.2.3-.8-.5-.8-.5-.9-.4h-.9a8.8 8.8 0 0 0-2.3.3l-2.4.7-2.5.7a10.4 10.4 0 0 1-2.5.3l-2.1-.2-2.9-.7-3.4-1-3-1.4a9.5 9.5 0 0 1-2.2-1.6 2.5 2.5 0 0 1-.9-1.8 2.7 2.7 0 0 1 .7-2 3.8 3.8 0 0 1 1.7-1 8.5 8.5 0 0 1 2.1-.1c.7 0 1.4.2 2 .2h2.4a1.6 1.6 0 0 1 .8-.2h1.4l1.5.2 1.2.2 1.2.3 1.1.5 1.1.5 1.2.2a5.3 5.3 0 0 0 2.4-.6l2.5-1.5 2.3-1.9 2-1.6 1.1-.8 1.1-.7 1-.8a4.8 4.8 0 0 0 .9-1 22.7 22.7 0 0 0 1.6-2.7 18.9 18.9 0 0 1 1.6-2.7l.8-.8.9-.6 1-.5 1-.6 2.2-1.6 2.1-1.8 2-1.8 2.1-1.7a12.9 12.9 0 0 1 2.3-1.3l2.4-1.1 1.5-.8 1.5-.8 1.5-.7 1.6-.5 13.5-2a6.5 6.5 0 0 0 2.1-.7l2-1.3 1.9-1.7 1.8-2 1.6-1.9 1.4-1.7 4.6-5.4.2-.2.3-.3.3-.3.2-.2 1.2-2h.7l.3-.2.2-.2.8-1 .8-1.2.8-1.2.6-1a7.7 7.7 0 0 0 .5-1.2l.4-1.3.5-1.3c.2-.4.6-.9.6-1.3v-4.1a3.1 3.1 0 0 0-.7-1.9 7 7 0 0 0-1.6-1.6 7.9 7.9 0 0 0-2-1.1 5.6 5.6 0 0 0-1.9-.4 14.9 14.9 0 0 0-3.5.4 7.4 7.4 0 0 0-3.1 1.6l-.9.9-1 1.1-.9 1.3-1.1 1.1-1.1.8a2.1 2.1 0 0 1-1.1.3 1 1 0 0 1-1-1v-1.8a3.1 3.1 0 0 0-.1-1l-.4-.8-.4-.7a1.9 1.9 0 0 1-.1-.7l.5-.2.3-.4.3-.5.5-.4h1.7a.7.7 0 0 0 .6-.2l.4-.4h.2l.2.2v.3a.3.3 0 0 1 .2-.2l.4-.2.7-.4.8-.5.8-.5.7-.4.3-.2 1.3-.8 1.1-.4h5l.9.3.9.2.9.2.9.3a9.1 9.1 0 0 1 2.8 1.8A10.3 10.3 0 0 1 164 93a11.7 11.7 0 0 1 1 3 14.5 14.5 0 0 1 .3 3.3v.9c0 .2.4.3.4.4z"/></symbol></svg>